<?xml version="1.0" encoding="utf-8"?>
<!-- Generator: Adobe Illustrator 16.0.0, SVG Export Plug-In . SVG Version: 6.00 Build 0)  -->
<!DOCTYPE svg PUBLIC "-//W3C//DTD SVG 1.1//EN" "http://www.w3.org/Graphics/SVG/1.1/DTD/svg11.dtd">
<svg version="1.1" id="Layer_1" xmlns="http://www.w3.org/2000/svg" xmlns:xlink="http://www.w3.org/1999/xlink" x="0px" y="0px"
	 width="150px" height="150px" viewBox="0 0 150 150" enable-background="new 0 0 150 150" xml:space="preserve">
<g>
	<g>
		<g>
			<g>
				<path fill="#B08883" d="M74.865,81.712c-0.189,0-0.379-0.054-0.545-0.161c-14.494-9.421-14.912-22.587-14.912-24.058
					c0-2.911,2.748-17.11,2.865-17.713c0.091-0.47,0.503-0.81,0.982-0.81h23.224c0.479,0,0.891,0.339,0.981,0.81
					c0.117,0.603,2.865,14.804,2.865,17.713c0,1.47-0.419,14.636-14.915,24.058C75.245,81.658,75.055,81.712,74.865,81.712z
					 M64.081,40.97c-0.871,4.548-2.672,14.402-2.672,16.523c0,1.341,0.383,13.207,13.457,22.02
					c13.076-8.812,13.46-20.679,13.46-22.02c0-2.12-1.802-11.975-2.673-16.523H64.081z"/>
			</g>
		</g>
		<g>
			<path fill="#B08883" d="M74.865,112.378c-0.552,0-1-0.447-1-1V80.712c0-0.553,0.448-1,1-1s1,0.447,1,1v30.666
				C75.865,111.931,75.417,112.378,74.865,112.378z"/>
		</g>
		<g>
			<path fill="#B08883" d="M88.227,112.378H60.408c-0.552,0-1-0.447-1-1s0.448-1,1-1h27.818c0.553,0,1,0.447,1,1
				S88.779,112.378,88.227,112.378z"/>
		</g>
	</g>
</g>
</svg>
