<?xml version="1.0" encoding="utf-8"?>
<!-- Generator: Adobe Illustrator 16.0.0, SVG Export Plug-In . SVG Version: 6.00 Build 0)  -->
<!DOCTYPE svg PUBLIC "-//W3C//DTD SVG 1.1//EN" "http://www.w3.org/Graphics/SVG/1.1/DTD/svg11.dtd">
<svg version="1.1" id="Layer_1" xmlns="http://www.w3.org/2000/svg" xmlns:xlink="http://www.w3.org/1999/xlink" x="0px" y="0px"
	 width="150px" height="150px" viewBox="0 0 150 150" enable-background="new 0 0 150 150" xml:space="preserve">
<g>
	<path fill="#B08883" d="M76,112.541c-8.532,0-10.844-7.814-11.387-10.508H48.501c-2.45,0-4.341-0.688-5.623-2.044
		c-1.762-1.865-1.645-4.291-1.639-4.394l0.025-0.435l0.334-0.277C55.558,83.276,54.24,60.58,54.225,60.352l-0.007-0.111l0.017-0.109
		c2.077-13.262,13.532-16.602,17.138-17.329c-0.186-1.363,0.062-2.516,0.738-3.438c1.316-1.794,3.75-1.901,3.852-1.905
		c0.175,0.004,2.608,0.111,3.925,1.905c0.677,0.922,0.923,2.075,0.737,3.438c3.606,0.728,15.061,4.067,17.138,17.329l0.017,0.109
		l-0.007,0.11c-0.015,0.228-1.316,22.939,12.628,34.533l0.334,0.277l0.024,0.435c0.006,0.103,0.123,2.528-1.639,4.394
		c-1.281,1.356-3.173,2.044-5.622,2.044H87.387C86.844,104.727,84.532,112.541,76,112.541z M43.253,96.104
		c0.054,0.573,0.269,1.665,1.095,2.529c0.889,0.929,2.286,1.4,4.153,1.4h17.858l0.094,0.897c0.042,0.393,1.106,9.61,9.546,9.61
		c3.537,0,6.211-1.594,7.947-4.737c1.337-2.42,1.597-4.848,1.599-4.872l0.092-0.898h17.861c1.878,0,3.28-0.477,4.168-1.417
		c0.814-0.862,1.026-1.942,1.08-2.513c-13.974-12.015-13.089-33.78-12.977-35.769c-2.276-14.101-16.294-15.71-16.436-15.725
		l-1.176-0.122l0.314-1.139c0.335-1.216,0.271-2.156-0.191-2.794c-0.724-0.997-2.258-1.093-2.321-1.097
		c0.015,0.003-1.519,0.1-2.243,1.097c-0.463,0.638-0.527,1.578-0.192,2.794l0.313,1.136l-1.173,0.125
		c-0.579,0.062-14.169,1.663-16.438,15.725C56.34,62.321,57.227,84.088,43.253,96.104z"/>
</g>
</svg>
