<?xml version="1.0" encoding="utf-8"?>
<!-- Generator: Adobe Illustrator 16.0.0, SVG Export Plug-In . SVG Version: 6.00 Build 0)  -->
<!DOCTYPE svg PUBLIC "-//W3C//DTD SVG 1.1//EN" "http://www.w3.org/Graphics/SVG/1.1/DTD/svg11.dtd">
<svg version="1.1" id="Layer_1" xmlns="http://www.w3.org/2000/svg" xmlns:xlink="http://www.w3.org/1999/xlink" x="0px" y="0px"
	 width="150px" height="150px" viewBox="0 0 150 150" enable-background="new 0 0 150 150" xml:space="preserve">
<g>
	<g>
		<path fill="#B08883" d="M103.445,113.637H48.734c-3.525,0-4.922-2.807-5.168-4.291c-0.009-0.055-0.014-0.109-0.014-0.164V43.184
			c0-0.056,0.005-0.112,0.014-0.167c0.584-3.435,3.024-4.654,4.937-4.654c0.022,0,0.144,0.003,0.166,0.005l32.472-0.002
			c0.267,0,0.521,0.105,0.709,0.293c0.187,0.188,0.293,0.443,0.291,0.708c0,0-0.039,17.988-0.039,22.399
			c0,1.899,0.898,2.862,2.672,2.862c0.179,0,0.299-0.013,0.322-0.016c0.041-0.005,0.09-0.009,0.131-0.009h22.17
			c0.552,0,0.998,0.446,1,0.997c0.006,1.612,0.115,39.531,0,43.285C108.283,112.645,105.107,113.637,103.445,113.637z
			 M45.552,109.086c0.101,0.465,0.69,2.551,3.182,2.551h54.708c0.484-0.006,2.877-0.171,2.955-2.812
			c0.104-3.386,0.021-36.057,0.004-42.221H85.284c-0.097,0.01-0.275,0.024-0.513,0.024c-2.258,0-4.67-1.277-4.67-4.862
			c0-3.784,0.027-17.557,0.037-21.401H48.601c-0.003,0-0.007,0-0.011,0c-0.677,0-2.546,0.223-3.039,2.906L45.552,109.086
			L45.552,109.086z"/>
	</g>
	<g>
		<path fill="#B08883" d="M105.621,61.218H86.314c-0.553,0-1-0.448-1-1V40.912c0-0.404,0.242-0.769,0.617-0.924
			c0.375-0.154,0.803-0.069,1.09,0.217l19.307,19.306c0.285,0.286,0.372,0.716,0.217,1.09
			C106.391,60.974,106.025,61.218,105.621,61.218z M87.314,59.218h15.893L87.314,43.326V59.218z"/>
	</g>
</g>
<rect x="80.197" y="81.023" fill="none" width="7.332" height="7.334"/>
<path fill="none" d="M91.719,84.135c0,0,0,0.076,0,1.146c0,1.068-1.183,1.146-1.183,1.146s-28.034,0-29.027,0
	c-0.993,0-1.26-1.146-1.26-1.146v-1.146v-0.695v-1.146c0,0,0.268-1.146,1.26-1.146c0.992,0,29.027,0,29.027,0
	s1.183,0.076,1.183,1.146c0,1.067,0,1.146,0,1.146V84.135z"/>
<path fill="none" d="M91.719,94.562c0,0,0,0.076,0,1.146s-1.183,1.146-1.183,1.146s-28.034,0-29.027,0
	c-0.993,0-1.26-1.146-1.26-1.146v-1.146v-0.696v-1.146c0,0,0.268-1.146,1.26-1.146c0.992,0,29.027,0,29.027,0
	s1.183,0.074,1.183,1.146c0,1.068,0,1.146,0,1.146V94.562z"/>
</svg>
