<?xml version="1.0" encoding="utf-8"?>
<!-- Generator: Adobe Illustrator 16.0.0, SVG Export Plug-In . SVG Version: 6.00 Build 0)  -->
<!DOCTYPE svg PUBLIC "-//W3C//DTD SVG 1.1//EN" "http://www.w3.org/Graphics/SVG/1.1/DTD/svg11.dtd">
<svg version="1.1" id="Layer_1" xmlns="http://www.w3.org/2000/svg" xmlns:xlink="http://www.w3.org/1999/xlink" x="0px" y="0px"
	 width="150px" height="150px" viewBox="0 0 150 150" enable-background="new 0 0 150 150" xml:space="preserve">
<g>
	<g>
		<path fill="#B08883" d="M43.787,108.104l-0.001-53.18l0.269-0.288c3.678-3.941,8.14-5.939,13.264-5.939
			c8.57,0,15.878,5.593,16.185,5.831l0.387,0.3v53.025l-1.707-1.707c-4.24-4.24-8.702-6.391-13.262-6.391
			c-7.754,0-13.327,6.277-13.382,6.341L43.787,108.104z M58.922,97.756c4.487,0,8.841,1.81,12.969,5.385V55.827
			c-1.578-1.112-7.754-5.13-14.572-5.13c-4.423,0-8.301,1.689-11.533,5.021v47.362C48.192,100.996,52.902,97.756,58.922,97.756z"/>
	</g>
	<g>
		<path fill="#B08883" d="M106.443,108.104l-1.754-2.008c-0.056-0.063-5.628-6.341-13.382-6.341c-4.561,0-9.022,2.15-13.263,6.391
			l-1.707,1.707V54.828l0.387-0.3c0.308-0.238,7.615-5.831,16.186-5.831c5.123,0,9.586,1.998,13.265,5.939l0.269,0.288V108.104z
			 M78.338,55.826v47.314c4.129-3.575,8.483-5.385,12.97-5.385c6.02,0,10.729,3.24,13.136,5.323V55.717
			c-3.231-3.332-7.11-5.021-11.533-5.021C86.075,50.697,79.913,54.713,78.338,55.826z"/>
	</g>
</g>
</svg>
