<?xml version="1.0" encoding="utf-8"?>
<!-- Generator: Adobe Illustrator 16.0.0, SVG Export Plug-In . SVG Version: 6.00 Build 0)  -->
<!DOCTYPE svg PUBLIC "-//W3C//DTD SVG 1.1//EN" "http://www.w3.org/Graphics/SVG/1.1/DTD/svg11.dtd">
<svg version="1.1" id="Layer_1" xmlns="http://www.w3.org/2000/svg" xmlns:xlink="http://www.w3.org/1999/xlink" x="0px" y="0px"
	 width="150px" height="150px" viewBox="0 0 150 150" enable-background="new 0 0 150 150" xml:space="preserve">
<g>
	<g>
		<path fill="#B08883" d="M85.684,111.051H66.315c-1.747,0-3.072-0.312-3.866-1.837l-0.087-0.165
			c-0.715-1.338-0.705-2.205,0.761-4.7c0.815-1.386,1.166-2.756,1.316-3.648H43.896c-6.2-0.31-8.081-5.101-8.216-7.591
			l-0.001-44.625c0.554-5.586,4.51-7.534,7.73-7.534c0.13,0,0.201,0.004,0.201,0.004l64.824-0.001
			c0.012-0.001,0.073-0.003,0.161-0.003c3.221,0,7.177,1.947,7.725,7.435l0.005,44.669c-0.138,2.545-2.02,7.336-8.168,7.645
			L87.564,100.7c0.152,0.897,0.505,2.273,1.313,3.648c1.467,2.496,1.476,3.363,0.76,4.701l-0.088,0.164
			C88.758,110.738,87.432,111.051,85.684,111.051z M65.551,98.7h1.015l-0.015,1.015c-0.002,0.115-0.062,2.854-1.704,5.647
			c-1.146,1.949-1.021,2.182-0.721,2.743l0.098,0.185c0.212,0.408,0.396,0.761,2.092,0.761h19.369c1.697,0,1.88-0.353,2.092-0.76
			l0.099-0.186c0.31-0.577,0.425-0.794-0.721-2.743c-1.642-2.792-1.702-5.531-1.704-5.646L85.434,98.7h22.672
			c5.855-0.295,6.207-5.479,6.22-5.7l-0.002-44.515c-0.517-5.127-4.516-5.534-5.729-5.534l-0.145,0.003l-65.041-0.003
			c-1.213,0-5.212,0.406-5.735,5.633l0.005,44.47c0.012,0.162,0.405,5.353,6.268,5.646L65.551,98.7z"/>
	</g>
</g>
<g>
	<path fill="#B08883" d="M102.418,83.834H49.584c-3.584,0-6.5-2.916-6.5-6.5v-22.5c0-3.584,2.916-6.5,6.5-6.5h52.834
		c3.584,0,6.5,2.916,6.5,6.5v22.5C108.918,80.918,106.002,83.834,102.418,83.834z M49.584,49.333c-3.033,0-5.5,2.467-5.5,5.5v22.5
		c0,3.032,2.467,5.5,5.5,5.5h52.834c3.032,0,5.5-2.468,5.5-5.5v-22.5c0-3.033-2.468-5.5-5.5-5.5H49.584z"/>
</g>
</svg>
